<?xml version="1.0" encoding="UTF-8"?>
<svg id="Layer_1" data-name="Layer 1" xmlns="http://www.w3.org/2000/svg" viewBox="0 0 500 500">
  <defs>
    <style>
      .cls-1 {
        fill: #24272b;
      }

      .cls-2 {
        fill: #00b7fd;
      }
    </style>
  </defs>
  <path class="cls-2" d="M66.29,262.54c-1.87,0-3.66-.29-5.36-.86-1.7-.57-3.05-1.31-4.03-2.22l1.3-2.73c.93.82,2.12,1.5,3.57,2.03,1.45.54,2.95.81,4.52.81,1.42,0,2.58-.16,3.47-.49s1.54-.78,1.96-1.35c.42-.57.63-1.22.63-1.94,0-.84-.27-1.52-.82-2.03-.55-.51-1.26-.93-2.14-1.24-.88-.32-1.84-.59-2.89-.82-1.05-.23-2.11-.51-3.17-.82s-2.03-.72-2.91-1.21-1.58-1.15-2.12-1.98c-.54-.83-.81-1.9-.81-3.21s.33-2.42,1-3.49c.67-1.06,1.69-1.91,3.08-2.56,1.39-.64,3.16-.96,5.31-.96,1.42,0,2.84.19,4.24.56,1.4.37,2.62.91,3.64,1.61l-1.16,2.8c-1.05-.7-2.16-1.21-3.33-1.52-1.17-.32-2.3-.47-3.4-.47-1.38,0-2.51.18-3.4.53-.89.35-1.54.82-1.94,1.4-.41.58-.61,1.24-.61,1.96,0,.86.27,1.55.82,2.07.55.51,1.26.92,2.14,1.23.88.3,1.84.58,2.89.82,1.05.24,2.11.52,3.17.82,1.06.3,2.03.7,2.91,1.19.88.49,1.58,1.14,2.12,1.96.54.82.81,1.87.81,3.15s-.34,2.39-1.02,3.45c-.68,1.06-1.72,1.92-3.14,2.56-1.41.64-3.19.96-5.34.96Z"/>
  <path class="cls-2" d="M94.07,262.54c-1.87,0-3.6-.32-5.2-.95s-2.98-1.51-4.15-2.64c-1.17-1.13-2.08-2.46-2.73-3.98-.65-1.52-.98-3.18-.98-4.97s.33-3.46.98-4.97c.65-1.52,1.56-2.84,2.73-3.98,1.17-1.13,2.55-2.01,4.13-2.64,1.59-.63,3.33-.95,5.22-.95s3.6.31,5.18.93c1.59.62,2.97,1.5,4.13,2.63,1.17,1.13,2.07,2.46,2.71,3.99.64,1.53.96,3.19.96,4.99s-.32,3.49-.96,5.01c-.64,1.52-1.55,2.84-2.71,3.98-1.17,1.13-2.55,2.01-4.13,2.63-1.59.62-3.32.93-5.18.93ZM94.04,259.42c1.38,0,2.64-.23,3.8-.7,1.16-.47,2.16-1.13,3.01-1.98.85-.85,1.52-1.85,2-2.99s.72-2.39.72-3.75-.24-2.6-.72-3.73c-.48-1.13-1.14-2.13-2-2.99-.85-.86-1.86-1.53-3.01-2-1.16-.47-2.42-.7-3.8-.7s-2.61.23-3.77.7c-1.16.47-2.17,1.13-3.03,2-.86.86-1.54,1.86-2.01,2.99-.48,1.13-.72,2.38-.72,3.73s.24,2.6.72,3.75c.48,1.14,1.15,2.14,2.01,2.99.86.85,1.87,1.51,3.03,1.98,1.16.47,2.41.7,3.77.7Z"/>
  <path class="cls-2" d="M125.5,262.54c-1.87,0-3.59-.31-5.17-.93-1.58-.62-2.94-1.49-4.1-2.63-1.16-1.13-2.06-2.46-2.71-3.98-.65-1.52-.98-3.19-.98-5.01s.33-3.49.98-5.01c.65-1.52,1.56-2.84,2.73-3.98s2.54-2.01,4.12-2.63c1.58-.62,3.3-.93,5.17-.93s3.64.32,5.24.96c1.6.64,2.96,1.59,4.08,2.86l-2.28,2.21c-.93-.98-1.99-1.71-3.15-2.19s-2.42-.72-3.75-.72-2.66.23-3.84.7c-1.18.47-2.2,1.12-3.06,1.96-.86.84-1.54,1.84-2.01,3-.48,1.16-.72,2.41-.72,3.77s.24,2.61.72,3.77c.48,1.16,1.15,2.15,2.01,3,.86.84,1.89,1.49,3.06,1.96,1.18.47,2.46.7,3.84.7s2.58-.24,3.75-.72c1.17-.48,2.22-1.22,3.15-2.22l2.28,2.21c-1.12,1.26-2.48,2.22-4.08,2.87-1.6.65-3.36.98-5.27.98Z"/>
  <path class="cls-2" d="M142.14,262.26v-24.52h3.5v24.52h-3.5Z"/>
  <path class="cls-2" d="M151.04,262.26l11.11-24.52h3.47l11.14,24.52h-3.68l-9.91-22.56h1.4l-9.91,22.56h-3.61ZM155.76,256.13l.95-2.8h13.8l1.02,2.8h-15.76Z"/>
  <path class="cls-2" d="M182.14,262.26v-24.52h3.5v21.47h13.28v3.05h-16.78Z"/>
  <path class="cls-2" d="M204.7,262.26v-24.52h3.5v21.47h13.28v3.05h-16.78Z"/>
  <path class="cls-2" d="M230.63,262.26v-9.39l.81,2.17-10.54-17.31h3.75l8.86,14.61h-2.03l8.9-14.61h3.47l-10.51,17.31.77-2.17v9.39h-3.47Z"/>
  <path class="cls-1" d="M271.26,262.54c-1.87,0-3.59-.31-5.17-.93-1.58-.62-2.94-1.49-4.1-2.63-1.16-1.13-2.06-2.46-2.71-3.98-.65-1.52-.98-3.19-.98-5.01s.33-3.49.98-5.01c.65-1.52,1.56-2.84,2.73-3.98s2.54-2.01,4.12-2.63c1.58-.62,3.3-.93,5.17-.93s3.64.32,5.24.96c1.6.64,2.96,1.59,4.08,2.86l-2.28,2.21c-.93-.98-1.99-1.71-3.15-2.19s-2.42-.72-3.75-.72-2.66.23-3.84.7c-1.18.47-2.2,1.12-3.06,1.96-.86.84-1.54,1.84-2.01,3-.48,1.16-.72,2.41-.72,3.77s.24,2.61.72,3.77c.48,1.16,1.15,2.15,2.01,3,.86.84,1.89,1.49,3.06,1.96,1.18.47,2.46.7,3.84.7s2.58-.24,3.75-.72c1.17-.48,2.22-1.22,3.15-2.22l2.28,2.21c-1.12,1.26-2.48,2.22-4.08,2.87-1.6.65-3.36.98-5.27.98Z"/>
  <path class="cls-1" d="M297.19,262.54c-3.22,0-5.76-.92-7.6-2.77-1.85-1.84-2.77-4.54-2.77-8.09v-13.94h3.5v13.8c0,2.73.6,4.73,1.8,5.99,1.2,1.26,2.9,1.89,5.1,1.89s3.93-.63,5.13-1.89c1.2-1.26,1.8-3.26,1.8-5.99v-13.8h3.4v13.94c0,3.55-.92,6.25-2.75,8.09-1.83,1.85-4.37,2.77-7.62,2.77Z"/>
  <path class="cls-1" d="M316.49,262.26v-24.52h9.56c3.18,0,5.68.75,7.5,2.26,1.82,1.51,2.73,3.6,2.73,6.29,0,1.78-.41,3.3-1.23,4.57-.82,1.27-1.99,2.25-3.5,2.93-1.52.68-3.35,1.02-5.5,1.02h-7.64l1.58-1.61v9.07h-3.5ZM319.99,253.54l-1.58-1.72h7.53c2.24,0,3.94-.48,5.1-1.45,1.16-.97,1.73-2.33,1.73-4.08s-.58-3.11-1.73-4.06c-1.16-.96-2.86-1.44-5.1-1.44h-7.53l1.58-1.75v14.5ZM332.88,262.26l-6.24-8.9h3.75l6.31,8.9h-3.82Z"/>
  <path class="cls-1" d="M343.71,262.26v-24.52h9.56c3.18,0,5.68.75,7.5,2.26,1.82,1.51,2.73,3.6,2.73,6.29,0,1.78-.41,3.3-1.23,4.57-.82,1.27-1.99,2.25-3.5,2.93-1.52.68-3.35,1.02-5.5,1.02h-7.64l1.58-1.61v9.07h-3.5ZM347.21,253.54l-1.58-1.72h7.53c2.24,0,3.94-.48,5.1-1.45,1.16-.97,1.73-2.33,1.73-4.08s-.58-3.11-1.73-4.06c-1.16-.96-2.86-1.44-5.1-1.44h-7.53l1.58-1.75v14.5ZM360.1,262.26l-6.24-8.9h3.75l6.31,8.9h-3.82Z"/>
  <path class="cls-1" d="M370.93,262.26v-24.52h17.31v3.05h-13.8v18.43h14.29v3.05h-17.8ZM374.12,251.3v-2.98h12.61v2.98h-12.61Z"/>
  <path class="cls-1" d="M396.15,262.26v-24.52h2.87l16.22,20.14h-1.51v-20.14h3.5v24.52h-2.87l-16.22-20.14h1.51v20.14h-3.5Z"/>
  <path class="cls-1" d="M431.22,262.26v-21.47h-8.41v-3.05h20.28v3.05h-8.41v21.47h-3.47Z"/>
</svg>